<svg xmlns="http://www.w3.org/2000/svg" xmlns:xlink="http://www.w3.org/1999/xlink" version="1.1" x="0px" y="0px" viewBox="0 0 512 640" style="enable-background:new 0 0 512 512;" xml:space="preserve"><g><g><g><path d="M320.229,370.193c-0.005,0-0.01,0-0.015,0c-38.333-0.024-82.293-21.419-120.609-58.697     c-0.065-0.063-0.13-0.128-0.194-0.193c-37.278-38.315-58.672-82.276-58.697-120.609c0-14.114,7.229-28.958,20.356-41.805     c9.032-8.838,22.366-17.757,31.797-17.757c14.531,0,18.398,6.872,24.251,17.274c1.426,2.535,3.042,5.408,5.133,8.883     c1.158,1.917,2.753,4.348,4.443,6.921c10.734,16.354,17.494,27.79,13.806,37.354c-2.892,7.443-10.542,13.551-17.941,19.457     c-2.738,2.187-6.664,5.32-8.403,7.214c1.343,7.467,11.126,23.275,28.185,40.333c17.036,17.036,32.825,26.816,40.312,28.179     c1.887-1.74,4.997-5.637,7.169-8.357c5.93-7.429,12.062-15.109,19.527-17.984c1.722-0.664,3.609-1.002,5.605-1.002     c8.521,0,18.532,6.139,31.744,14.811c2.573,1.688,5.004,3.284,6.936,4.451c3.461,2.082,6.334,3.699,8.869,5.125     c10.401,5.854,17.273,9.72,17.273,24.25c0,9.427-8.924,22.759-17.769,31.79C349.161,362.948,334.324,370.181,320.229,370.193z      M213.651,297.258c34.083,33.123,73.914,52.91,106.566,52.936c19.743-0.024,38.525-25.634,39.56-32.331     c-0.007-1.368-0.087-2.086-0.145-2.427c-1.02-0.886-4.15-2.647-6.937-4.215c-2.522-1.42-5.662-3.187-9.387-5.428     c-2.268-1.369-4.851-3.064-7.585-4.859c-5.181-3.4-15.598-10.237-20.033-11.381c-2.735,1.915-7.533,7.925-10.239,11.314     c-6.86,8.594-12.785,16.016-21.14,16.045c-20.356-0.021-48.095-26.184-56.113-34.202c-8.018-8.018-34.181-35.757-34.202-56.069     c0-8.409,7.454-14.359,16.085-21.25c3.372-2.691,9.345-7.459,11.27-10.184c-1.151-4.442-7.979-14.845-11.377-20.021     c-1.795-2.734-3.49-5.317-4.851-7.57c-2.25-3.739-4.017-6.878-5.436-9.401c-1.568-2.787-3.33-5.917-4.215-6.937     c-0.341-0.058-1.06-0.138-2.429-0.145c-6.702,1.029-32.33,19.807-32.33,39.555C160.736,223.336,180.524,263.17,213.651,297.258z"/></g><g><path d="M63.009,461.541c-2.523,0-5.008-0.955-6.906-2.766c-2.887-2.755-3.859-6.962-2.475-10.704l32.983-89.153     c-24.154-37.806-35.465-82.77-31.9-127.201c3.758-46.831,23.968-90.761,56.905-123.698c37.118-37.118,86.817-57.56,139.942-57.56     c55.033,0,107.038,21.697,146.437,61.095c79.929,79.93,81.516,208.398,3.536,286.379     c-37.113,37.112-86.809,57.553-139.924,57.553c-0.003,0-0.002,0-0.005,0c-38.502-0.001-75.998-10.762-108.791-31.172     l-85.899,36.434C65.652,461.281,64.325,461.541,63.009,461.541z M153.76,403.048c1.928,0,3.844,0.557,5.502,1.648     c30.578,20.142,65.966,30.788,102.34,30.789c47.776,0.001,92.448-18.357,125.786-51.695     c70.182-70.182,68.596-185.963-3.536-258.094c-35.62-35.621-82.604-55.237-132.294-55.237     c-47.783,0-92.459,18.361-125.799,51.702c-60.506,60.506-68.803,157.192-19.728,229.896c1.802,2.67,2.208,6.044,1.09,9.064     l-26.7,72.172l69.436-29.451C151.109,403.31,152.438,403.048,153.76,403.048z"/></g></g></g><text x="0" y="527" fill="#000000" font-size="5px" font-weight="bold" font-family="'Helvetica Neue', Helvetica, Arial-Unicode, Arial, Sans-serif">Created by Flatart</text><text x="0" y="532" fill="#000000" font-size="5px" font-weight="bold" font-family="'Helvetica Neue', Helvetica, Arial-Unicode, Arial, Sans-serif">from the Noun Project</text></svg>